# Blender 3.5.1
# www.blender.org
mtllib ear B.mtl
o ear_B
v 0.172618 1.457816 -0.019537
v 0.179148 1.336769 -0.034316
v 0.162875 1.343056 -0.028842
v 0.133447 1.515009 0.010013
v 0.100822 1.454237 -0.000298
v 0.086837 1.461201 0.005360
v 0.132543 1.545701 0.020480
v 0.188597 1.463795 -0.022700
v 0.148777 1.452520 -0.063955
v 0.124621 1.334269 -0.100214
v 0.075541 1.357954 -0.086680
v 0.090920 1.458341 -0.048001
v 0.132543 1.545701 0.020480
v 0.132543 1.545701 0.020480
v 0.132543 1.545701 0.020480
v 0.172618 1.457816 -0.019537
v 0.100822 1.454237 -0.000298
v 0.133447 1.515009 0.010013
v 0.162875 1.343056 -0.028842
v 0.100822 1.454237 -0.000298
v 0.172618 1.457816 -0.019537
v 0.066948 1.382578 0.011480
v 0.088601 1.307792 0.000731
v 0.121656 1.292139 -0.007050
v 0.093843 1.281011 -0.049527
v 0.179148 1.336769 -0.034316
v 0.124621 1.334269 -0.100214
v 0.075541 1.357954 -0.086680
v 0.082365 1.289331 -0.023593
v 0.050186 1.383947 0.017701
v 0.121656 1.292139 -0.007050
v 0.162875 1.343056 -0.028842
v 0.179148 1.336769 -0.034316
v 0.066948 1.382578 0.011480
v 0.086837 1.461201 0.005360
v 0.100822 1.454237 -0.000298
v 0.050186 1.383947 0.017701
v 0.088601 1.307792 0.000731
v 0.075902 1.295807 0.005564
v 0.125085 1.272172 -0.007998
v 0.093843 1.281011 -0.049527
v 0.082365 1.289331 -0.023593
v 0.050186 1.383947 0.017701
v 0.075541 1.357954 -0.086680
v 0.090920 1.458341 -0.048001
v 0.086837 1.461201 0.005360
vn -0.5892 0.3001 0.7502
vn -0.6262 0.5210 -0.5801
vn -0.7109 0.0558 0.7011
vn -0.6862 -0.0032 -0.7275
vn -0.5371 -0.4821 0.6922
vn -0.7597 -0.6473 -0.0626
vn 0.3941 -0.8192 0.4167
vn -0.2929 -0.8382 -0.4601
vn 0.9353 -0.3086 0.1730
vn 0.3267 0.0663 0.9428
vn 0.3324 0.0411 0.9423
vn 0.3590 -0.0252 0.9330
vn 0.3023 -0.1497 0.9414
vn 0.3278 -0.0003 0.9447
vn -0.7109 0.0559 0.7011
vn -0.6862 -0.0032 -0.7274
vn 0.2367 -0.3032 -0.9231
vn 0.3278 -0.0002 0.9447
vn 0.2614 -0.1856 0.9472
vn 0.2604 -0.3017 0.9172
vn 0.3024 -0.1497 0.9414
vn 0.0477 0.8808 0.4711
vn 0.9552 0.2424 0.1699
vn 0.3102 0.4002 -0.8623
vn 0.0476 0.8808 0.4711
vn -0.6862 -0.0033 -0.7274
vn 0.2368 -0.3032 -0.9231
vn 0.2604 -0.3016 0.9172
vn -0.5891 0.3001 0.7502
vn 0.3024 -0.1497 0.9413
vt 0.443101 0.435450
vt 0.427221 0.435450
vt 0.436384 0.435450
vt 0.443101 0.435450
vt 0.501760 0.435450
vt 0.509019 0.435450
vt 0.427221 0.435450
vt 0.427221 0.435450
vt 0.427221 0.517249
vt 0.427221 0.517249
vt 0.509019 0.517249
vt 0.509019 0.517249
vt 0.509019 0.517249
vt 0.427221 0.517249
vt 0.509019 0.435450
vt 0.116990 0.537367
vt 0.216488 0.537367
vt 0.116990 0.537367
vt 0.179984 0.440650
vt 0.221752 0.440650
vt 0.184276 0.440650
vt 0.220614 0.440650
vt 0.214122 0.440650
vt 0.185850 0.440650
vt 0.184024 0.273652
vt 0.184024 0.191853
vt 0.184024 0.273652
vt 0.265822 0.273652
vt 0.265822 0.273652
vt 0.265822 0.191853
vt 0.456601 0.584053
vt 0.447419 0.584053
vt 0.438256 0.584053
vt 0.511013 0.584053
vt 0.520054 0.584053
vt 0.512794 0.584053
vt 0.520054 0.584053
vt 0.500851 0.584053
vt 0.520054 0.584053
vt 0.438256 0.584053
vt 0.438256 0.665851
vt 0.520054 0.665851
vt 0.491364 0.433244
vt 0.491364 0.515042
vt 0.491364 0.515042
vt 0.491364 0.433244
s 1
usemtl Head
f 46/46/1 45/45/2 43/43/3
f 45/45/2 44/44/4 43/43/3
f 39/39/5 37/37/3 42/42/6
f 39/39/5 42/42/6 40/40/7
f 42/42/6 41/41/8 40/40/7
f 33/33/9 40/40/7 41/41/8
f 40/40/7 33/33/9 31/31/10
f 39/39/5 40/40/7 31/31/10
f 38/38/11 39/39/5 31/31/10
f 37/37/3 39/39/5 38/38/11
f 34/34/12 37/37/3 38/38/11
f 35/35/1 37/37/3 34/34/12
f 36/36/13 35/35/1 34/34/12
f 33/33/9 32/32/14 31/31/10
f 30/30/15 28/28/16 29/29/6
f 29/29/6 28/28/16 25/25/8
f 28/28/16 27/27/17 25/25/8
f 27/27/17 26/26/9 25/25/8
f 24/24/10 19/19/18 23/23/11
f 19/19/18 22/22/12 23/23/11
f 20/20/13 22/22/12 19/19/18
f 21/21/19 20/20/13 19/19/18
f 18/18/20 17/17/21 16/16/19
f 15/15/22 12/12/2 6/6/1
f 14/14/22 8/8/23 9/9/24
f 13/13/25 9/9/24 12/12/2
f 12/12/2 9/9/24 11/11/26
f 9/9/24 10/10/27 11/11/26
f 10/10/27 9/9/24 2/2/9
f 9/9/24 8/8/23 2/2/9
f 2/2/9 8/8/23 1/1/19
f 1/1/19 8/8/23 4/4/28
f 8/8/23 7/7/22 4/4/28
f 7/7/22 6/6/29 4/4/28
f 6/6/29 5/5/30 4/4/28
f 3/3/14 2/2/9 1/1/19
