# Blender 3.5.1
# www.blender.org
mtllib foot A.mtl
o foot_A
v -0.026236 0.074793 -0.025533
v -0.026236 0.041120 -0.020416
v -0.018305 0.037496 0.049990
v -0.054848 0.078704 0.035970
v -0.026236 0.074793 -0.025533
v -0.047913 0.038488 -0.088569
v -0.026236 0.005504 -0.020416
v -0.018305 0.005182 0.060295
v -0.081482 0.005265 0.056642
v -0.131916 0.005135 0.053771
v -0.122995 0.005293 -0.026395
v -0.131916 0.037449 0.043466
v -0.122995 0.043407 -0.026395
v -0.122995 0.077080 -0.029616
v -0.090282 0.072919 -0.087791
v -0.114543 0.103373 -0.037488
v -0.087337 0.102724 -0.088001
v -0.052101 0.101894 -0.086999
v -0.094453 0.078637 0.034510
v -0.090806 0.101066 0.017982
v -0.034073 0.100846 -0.034122
v -0.047913 0.072161 -0.086569
v -0.057868 0.101046 0.019247
v -0.034073 0.100846 -0.034122
v -0.054848 0.078704 0.035970
v -0.094453 0.078637 0.034510
v -0.047913 0.004838 -0.088570
v -0.090282 0.005597 -0.090359
v -0.090282 0.039246 -0.090358
v -0.052101 0.101894 -0.086999
v -0.087337 0.102724 -0.088001
v -0.090282 0.072919 -0.087791
v -0.047913 0.072161 -0.086569
v -0.081482 0.005265 0.056642
v -0.131916 0.005135 0.053771
v -0.100478 0.005182 0.083138
v -0.018305 0.005182 0.060295
v -0.049743 0.005135 0.088755
v -0.049743 0.005135 0.088755
v -0.100478 0.005182 0.083138
v -0.054848 0.005242 0.090893
v -0.100478 0.047968 0.074214
v -0.131916 0.005135 0.053771
v -0.131916 0.037449 0.043466
v -0.094453 0.078637 0.034510
v -0.054848 0.078704 0.035970
v -0.018305 0.037496 0.049990
v -0.049743 0.043758 0.078450
v -0.018305 0.005182 0.060295
v -0.054848 0.050549 0.079547
v -0.094453 0.005174 0.088755
v -0.094453 0.050481 0.077409
v -0.054848 0.078704 0.035970
v -0.094453 0.078637 0.034510
v -0.100478 0.005182 0.083138
v -0.094453 0.005174 0.088755
v -0.054848 0.005242 0.090893
v -0.094453 0.078637 0.034510
v -0.094453 0.050481 0.077409
v -0.100478 0.047968 0.074214
v -0.094453 0.005174 0.088755
v -0.100478 0.005182 0.083138
v -0.054848 0.078704 0.035970
v -0.049743 0.043758 0.078450
v -0.054848 0.050549 0.079547
v -0.054848 0.005242 0.090893
v -0.049743 0.005135 0.088755
vn 0.6121 0.0668 -0.7880
vn -0.5181 0.0512 -0.8538
vn 0.5872 -0.0584 -0.8074
vn -0.4967 -0.0788 -0.8644
vn 0.7130 -0.6847 -0.1510
vn 0.4807 -0.6081 -0.6317
vn 0.5979 0.0178 -0.8013
vn -0.4044 -0.6009 -0.6895
vn -0.4990 0.0305 -0.8661
vn 0.6121 0.0669 -0.7880
vn -0.5181 0.0513 -0.8538
vn -0.9548 -0.0090 -0.2971
vn -0.7082 -0.6711 -0.2191
vn -0.6709 0.7355 -0.0946
vn -0.9674 0.2216 -0.1223
vn -0.3749 0.8100 0.4510
vn -0.4346 0.7152 0.5474
vn 0.3722 0.8055 0.4612
vn 0.4095 0.7237 0.5555
vn 0.9739 0.2240 -0.0378
vn 0.4956 0.8408 0.2178
vn 0.9739 0.2239 -0.0378
vn 0.4449 0.8938 0.0558
vn 0.3924 0.9004 -0.1881
vn -0.9097 0.3067 0.2799
vn -0.5477 0.8097 -0.2105
vn -0.7468 -0.5793 0.3266
vn 0.0007 -1.0000 -0.0026
vn 0.7438 -0.5717 0.3464
vn 0.8924 0.3259 0.3120
vn 0.9789 -0.0156 -0.2038
vn 0.1362 -0.5491 0.8246
vn 0.4239 -0.5878 0.6890
vn 0.6188 0.3720 0.6919
vn 0.3445 0.5756 0.7416
vn -0.5174 -0.6520 0.5543
vn -0.3034 -0.5566 0.7734
vn -0.6242 0.4411 0.6448
vn -0.2953 0.5592 0.7747
vn -0.3034 -0.5567 0.7734
vn 0.6188 0.3721 0.6919
vn 0.8924 0.3260 0.3120
vn -0.5175 -0.6520 0.5542
vn -0.5174 -0.6520 0.5542
vn 0.0009 -1.0000 -0.0025
vt 0.205325 0.391941
vt 0.516016 0.391941
vt 0.205325 0.391941
vt 0.231423 0.391941
vt 0.516016 0.391941
vt 0.516016 0.391941
vt 0.516016 0.391941
vt 0.205325 0.391941
vt 0.284821 0.391941
vt 0.231423 0.391941
vt 0.231423 0.391941
vt 0.231423 0.391941
vt 0.231423 0.391941
vt 0.231423 0.391941
vt 0.425779 0.391941
vt 0.231423 0.391941
vt 0.425779 0.391941
vt 0.000000 0.000000
vt 0.000000 0.000000
vt 0.516016 0.391941
vt 0.205325 0.391941
vt 0.231423 0.391941
vt 0.516016 0.391941
vt 0.516016 0.391941
vt 0.205325 0.391941
vt 0.205325 0.391941
vt 0.205325 0.391941
vt 0.231423 0.391941
vt 0.516016 0.391941
vt 0.425779 0.391941
vt 0.425779 0.391941
vt 0.509815 0.559362
vt 0.419578 0.559362
vt 0.419578 0.559362
vt 0.509815 0.559362
vt 0.724416 0.551646
vt 0.814978 0.555135
vt 0.776479 0.636946
vt 0.591614 0.552493
vt 0.650787 0.633630
vt 0.368002 0.552430
vt 0.355818 0.552430
vt 0.355818 0.552430
vt 0.355818 0.552430
vt 0.368002 0.552430
vt 0.368002 0.552430
vt 0.355818 0.552430
vt 0.368002 0.552430
vt 0.355818 0.552430
vt 0.368002 0.552430
vt 0.355818 0.552430
vt 0.355818 0.552430
vt 0.368002 0.552430
vt 0.368002 0.552430
vt 0.355818 0.552430
vt 0.368002 0.552430
vt 0.308568 0.808071
vt 0.289270 0.821342
vt 0.176992 0.810756
vt 0.138525 0.305272
vt 0.150709 0.305272
vt 0.138525 0.305272
vt 0.150709 0.305272
vt 0.138525 0.305272
vt 0.150709 0.305272
vt 0.150709 0.305272
vt 0.138525 0.305272
vt 0.138525 0.305272
vt 0.150709 0.305272
s 1
usemtl Sock
f 33/35/1 32/34/2 30/32/3
f 32/34/2 31/33/4 30/32/3
f 7/7/5 27/29/6 6/6/7
f 27/29/6 28/30/8 6/6/7
f 28/30/8 29/31/9 6/6/7
f 6/6/7 29/31/9 22/24/10
f 29/31/9 15/15/11 22/24/10
f 29/31/9 13/13/12 15/15/11
f 11/11/13 13/13/12 29/31/9
f 28/30/8 11/11/13 29/31/9
f 7/7/5 11/11/13 28/30/8
f 28/30/8 27/29/6 7/7/5
f 16/16/14 14/14/15 20/22/16
f 14/14/15 26/28/17 20/22/16
f 20/22/16 26/28/17 23/25/18
f 26/28/17 25/27/19 23/25/18
f 25/27/19 1/1/20 23/25/18
f 1/1/20 24/26/21 23/25/18
f 6/6/7 22/24/10 5/5/22
f 5/5/22 22/24/10 21/23/23
f 22/24/10 18/20/24 21/23/23
f 12/12/25 19/21/17 14/14/15
f 17/17/26 15/15/11 16/16/14
f 15/15/11 14/14/15 16/16/14
f 13/13/12 14/14/15 15/15/11
f 13/13/12 12/12/25 14/14/15
f 12/12/25 13/13/12 11/11/13
f 10/10/27 12/12/25 11/11/13
f 7/7/5 10/10/27 11/11/13
f 7/7/5 9/9/28 10/10/27
f 7/7/5 8/8/29 9/9/28
f 3/3/30 8/8/29 7/7/5
f 2/2/31 3/3/30 7/7/5
f 2/2/31 7/7/5 6/6/7
f 2/2/31 6/6/7 5/5/22
f 1/1/22 4/4/19 3/3/30
f 3/3/30 2/2/31 1/1/22
f 18/19/24 17/18/26 20/22/16 23/25/18
f 24/26/21 21/23/23 18/20/24 23/25/18
f 17/18/26 16/16/14 20/22/16
usemtl Hands
f 66/68/32 67/69/33 64/66/34
f 65/67/35 66/68/32 64/66/34
f 65/67/35 64/66/34 63/65/19
f 62/64/36 61/63/37 60/62/38
f 61/63/37 59/61/39 60/62/38
f 60/62/38 59/61/39 58/60/17
f 57/59/32 56/58/40 55/57/36
f 54/56/17 52/54/39 53/55/19
f 52/54/39 50/52/35 53/55/19
f 52/54/39 51/53/37 50/52/35
f 51/53/37 41/43/32 50/52/35
f 39/41/33 49/51/29 48/50/41
f 49/51/29 47/49/42 48/50/41
f 48/50/41 47/49/42 46/48/19
f 42/44/38 45/47/17 44/46/25
f 44/46/25 43/45/27 42/44/38
f 43/45/27 40/42/43 42/44/38
f 41/43/32 40/42/36 39/41/33
f 36/38/44 37/39/29 38/40/33
f 36/38/44 34/36/45 37/39/29
f 36/38/44 35/37/27 34/36/45
