# Blender 3.5.1
# www.blender.org
mtllib foot B.mtl
o foot_B
v 0.052103 0.101895 -0.087002
v 0.034075 0.100846 -0.034125
v 0.047915 0.072161 -0.086572
v 0.026239 0.074793 -0.025536
v 0.047915 0.038488 -0.088569
v 0.026238 0.041120 -0.020416
v 0.026238 0.005505 -0.020415
v 0.018307 0.037497 0.049990
v 0.018307 0.005183 0.060295
v 0.081484 0.005265 0.056643
v 0.131918 0.005135 0.053772
v 0.087339 0.102725 -0.088004
v 0.026239 0.074793 -0.025536
v 0.054850 0.078705 0.035970
v 0.122998 0.005294 -0.026395
v 0.131918 0.037450 0.043466
v 0.122998 0.043407 -0.026396
v 0.122998 0.077080 -0.029618
v 0.090284 0.072920 -0.087793
v 0.090284 0.039247 -0.090360
v 0.090284 0.005597 -0.090358
v 0.047915 0.004838 -0.088569
v 0.094456 0.078637 0.034509
v 0.034075 0.100846 -0.034125
v 0.057870 0.101046 0.019246
v 0.054850 0.078705 0.035970
v 0.094456 0.078637 0.034509
v 0.090808 0.101066 0.017980
v 0.114546 0.103373 -0.037491
v 0.052103 0.101895 -0.087002
v 0.047915 0.072161 -0.086572
v 0.090284 0.072920 -0.087793
v 0.087339 0.102725 -0.088004
v 0.100480 0.005182 0.083139
v 0.054850 0.005242 0.090894
v 0.094455 0.005174 0.088755
v 0.049745 0.005135 0.088755
v 0.054850 0.005242 0.090894
v 0.100480 0.005182 0.083139
v 0.100480 0.047969 0.074214
v 0.131918 0.005135 0.053772
v 0.131918 0.037450 0.043466
v 0.094456 0.078637 0.034509
v 0.049745 0.043758 0.078450
v 0.018307 0.005183 0.060295
v 0.018307 0.037497 0.049990
v 0.054850 0.078705 0.035970
v 0.054850 0.078705 0.035970
v 0.094456 0.078637 0.034509
v 0.094455 0.050481 0.077409
v 0.054850 0.050549 0.079547
v 0.094455 0.005174 0.088755
v 0.049745 0.005135 0.088755
v 0.100480 0.005182 0.083139
v 0.018307 0.005183 0.060295
v 0.081484 0.005265 0.056643
v 0.131918 0.005135 0.053772
v 0.094456 0.078637 0.034509
v 0.100480 0.047969 0.074214
v 0.094455 0.050481 0.077409
v 0.094455 0.005174 0.088755
v 0.100480 0.005182 0.083139
v 0.054850 0.078705 0.035970
v 0.054850 0.050549 0.079547
v 0.049745 0.043758 0.078450
v 0.054850 0.005242 0.090894
v 0.049745 0.005135 0.088755
vn 0.4967 -0.0788 -0.8644
vn 0.5181 0.0513 -0.8538
vn -0.5872 -0.0584 -0.8074
vn -0.6121 0.0669 -0.7880
vn 0.4261 0.8630 -0.2714
vn 0.6709 0.7355 -0.0946
vn 0.9674 0.2216 -0.1223
vn 0.3749 0.8100 0.4510
vn 0.4346 0.7152 0.5474
vn -0.3722 0.8055 0.4612
vn -0.4095 0.7237 0.5555
vn -0.9739 0.2240 -0.0378
vn -0.7849 0.6165 0.0619
vn 0.9097 0.3067 0.2799
vn 0.9548 -0.0091 -0.2971
vn 0.7082 -0.6711 -0.2191
vn 0.4990 0.0304 -0.8661
vn 0.4044 -0.6009 -0.6895
vn -0.7130 -0.6847 -0.1510
vn -0.4807 -0.6081 -0.6317
vn -0.5980 0.0178 -0.8013
vn 0.7468 -0.5793 0.3266
vn -0.9789 -0.0156 -0.2038
vn -0.8924 0.3260 0.3120
vn -0.9739 0.2239 -0.0378
vn -0.0007 -1.0000 -0.0026
vn -0.7438 -0.5717 0.3464
vn -0.9061 0.4191 -0.0570
vn -0.9877 0.1140 -0.1070
vn -0.4239 -0.5878 0.6890
vn -0.1362 -0.5491 0.8246
vn -0.6188 0.3721 0.6918
vn -0.3445 0.5756 0.7416
vn 0.3034 -0.5566 0.7734
vn 0.5175 -0.6520 0.5542
vn 0.6242 0.4411 0.6448
vn 0.2953 0.5592 0.7747
vn 0.5174 -0.6520 0.5542
vn -0.0009 -1.0000 -0.0025
vn -0.3446 0.5756 0.7416
vn -0.6188 0.3721 0.6919
vn 0.6243 0.4411 0.6448
vn 0.5174 -0.6520 0.5543
vn 0.3034 -0.5567 0.7734
vn -0.0156 0.9998 0.0118
vn -0.0000 1.0000 -0.0000
vn 0.3726 0.9279 0.0111
vn -0.0969 0.9760 0.1952
vn -0.3873 0.9216 -0.0239
vn -0.0300 0.9995 0.0096
vn -0.3711 0.9116 -0.1770
vt 0.516016 0.391941
vt 0.000000 0.000000
vt 0.516016 0.391941
vt 0.516016 0.391941
vt 0.516016 0.391941
vt 0.516016 0.391941
vt 0.516016 0.391941
vt 0.516016 0.391941
vt 0.205325 0.391941
vt 0.205325 0.391941
vt 0.284821 0.391941
vt 0.231423 0.391941
vt 0.425779 0.391941
vt 0.000000 0.000000
vt 0.205325 0.391941
vt 0.231423 0.391941
vt 0.231423 0.391941
vt 0.231423 0.391941
vt 0.231423 0.391941
vt 0.231423 0.391941
vt 0.425779 0.391941
vt 0.425779 0.391941
vt 0.425779 0.391941
vt 0.516016 0.391941
vt 0.205325 0.391941
vt 0.205325 0.391941
vt 0.205325 0.391941
vt 0.205325 0.391941
vt 0.231423 0.391941
vt 0.231423 0.391941
vt 0.231423 0.391941
vt 0.509815 0.559362
vt 0.509815 0.559362
vt 0.419578 0.559362
vt 0.419578 0.559362
vt 0.308568 0.808071
vt 0.176992 0.810756
vt 0.289270 0.821342
vt 0.368002 0.552430
vt 0.355818 0.552430
vt 0.355818 0.552430
vt 0.355818 0.552430
vt 0.368002 0.552430
vt 0.368002 0.552430
vt 0.355818 0.552430
vt 0.368002 0.552430
vt 0.355818 0.552430
vt 0.355818 0.552430
vt 0.368002 0.552430
vt 0.355818 0.552430
vt 0.368002 0.552430
vt 0.368002 0.552430
vt 0.355818 0.552430
vt 0.368002 0.552430
vt 0.650787 0.633630
vt 0.776479 0.636946
vt 0.591614 0.552493
vt 0.724416 0.551646
vt 0.814978 0.555135
vt 0.138525 0.305272
vt 0.138525 0.305272
vt 0.150709 0.305272
vt 0.150709 0.305272
vt 0.138525 0.305272
vt 0.150709 0.305272
vt 0.138525 0.305272
vt 0.150709 0.305272
vt 0.138525 0.305272
vt 0.150709 0.305272
s 1
usemtl Sock
f 33/35/1 32/34/2 30/32/3
f 32/34/2 31/33/4 30/32/3
f 19/21/2 12/13/5 29/31/6
f 18/20/7 19/21/2 29/31/6
f 18/20/7 29/31/6 28/30/8
f 27/29/9 18/20/7 28/30/8
f 27/29/9 28/30/8 25/27/10
f 26/28/11 27/29/9 25/27/10
f 13/15/12 26/28/11 25/27/10
f 24/26/13 13/15/12 25/27/10
f 23/25/9 16/18/14 18/20/7
f 17/19/15 15/17/16 20/22/17
f 15/17/16 21/23/18 20/22/17
f 15/17/16 7/8/19 21/23/18
f 22/24/20 7/8/19 5/6/21
f 22/24/20 21/23/18 7/8/19
f 21/23/18 22/24/20 5/6/21
f 20/22/17 21/23/18 5/6/21
f 20/22/17 5/6/21 3/4/4
f 19/21/2 20/22/17 3/4/4
f 17/19/15 20/22/17 19/21/2
f 18/20/7 17/19/15 19/21/2
f 16/18/14 17/19/15 18/20/7
f 17/19/15 16/18/14 15/17/16
f 16/18/14 11/12/22 15/17/16
f 11/12/22 7/8/19 15/17/16
f 6/7/23 8/9/24 13/15/25
f 14/16/11 13/15/25 8/9/24
f 10/11/26 7/8/19 11/12/22
f 9/10/27 7/8/19 10/11/26
f 9/10/27 8/9/24 7/8/19
f 8/9/24 6/7/23 7/8/19
f 7/8/19 6/7/23 5/6/21
f 5/6/21 6/7/23 4/5/25
f 3/4/4 5/6/21 4/5/25
f 3/4/4 4/5/25 2/3/28
f 1/1/29 3/4/4 2/3/28
f 28/30/8 12/14/5 1/2/45 25/27/10
f 12/14/5 28/30/8 29/31/6
f 25/27/46 2/3/47 1/1/48 24/26/49
f 25/27/10 1/2/45 2/3/50 24/26/51
usemtl Hands
f 67/69/30 66/68/31 65/67/32
f 66/68/31 64/66/33 65/67/32
f 65/67/32 64/66/33 63/65/11
f 61/63/34 62/64/35 59/61/36
f 60/62/37 61/63/34 59/61/36
f 60/62/37 59/61/36 58/60/9
f 57/59/22 54/56/38 56/58/39
f 56/58/39 54/56/38 55/57/27
f 55/57/27 54/56/38 53/55/30
f 38/40/31 52/54/34 51/53/40
f 52/54/34 50/52/37 51/53/40
f 51/53/40 50/52/37 48/50/11
f 50/52/37 49/51/9 48/50/11
f 46/48/24 44/46/41 47/49/11
f 46/48/24 45/47/27 44/46/41
f 45/47/27 37/39/30 44/46/41
f 43/45/9 40/42/42 42/44/14
f 41/43/22 42/44/14 40/42/42
f 39/41/35 41/43/22 40/42/42
f 39/41/43 38/40/31 37/39/30
f 36/38/44 35/37/31 34/36/43
