# Blender 3.5.1
# www.blender.org
mtllib lower leg A.mtl
o lower_leg_A
v -0.114543 0.101376 -0.037488
v -0.087337 0.100727 -0.088001
v -0.115841 0.229125 -0.072268
v -0.090596 0.228476 -0.113446
v -0.123848 0.353492 -0.053298
v -0.095559 0.384324 -0.118409
v -0.043899 0.383225 -0.117344
v -0.047467 0.227646 -0.112336
v -0.052101 0.099897 -0.086999
v -0.090815 0.226818 0.003159
v -0.090806 0.099069 0.017982
v -0.097139 0.343225 0.015889
v -0.129219 0.393786 -0.023671
v -0.095559 0.413879 -0.072250
v -0.043899 0.413100 -0.070933
v -0.019535 0.391457 -0.019278
v -0.020468 0.350084 -0.049677
v -0.032114 0.226598 -0.068540
v -0.034073 0.098849 -0.034122
v -0.052625 0.342957 0.017413
v -0.054526 0.226798 0.004560
v -0.057868 0.099049 0.019247
v -0.019535 0.391457 -0.019278
v -0.020468 0.350084 -0.049677
v -0.032114 0.226598 -0.068540
v -0.034073 0.098849 -0.034122
v -0.051693 0.390097 0.056485
v -0.019535 0.391457 -0.019278
v -0.052625 0.342957 0.017413
v -0.100248 0.389952 0.054945
v -0.097139 0.343225 0.015889
v -0.129219 0.393786 -0.023671
vn -0.6184 -0.3632 0.6969
vn -0.7066 0.3507 0.6146
vn -0.9947 -0.1005 -0.0234
vn 0.5601 -0.3472 0.7522
vn 0.1061 0.3134 0.9437
vn 0.7209 0.6163 0.3170
vn 0.5031 0.0857 0.8600
vn 0.9648 -0.2490 0.0845
vn 0.5837 -0.0175 0.8118
vn 0.9963 -0.0599 -0.0613
vn 0.9990 -0.0434 -0.0066
vn 0.9933 -0.0870 0.0758
vn -0.5387 0.0970 0.8369
vn -0.6097 -0.0040 0.7926
vn 0.9279 -0.3694 -0.0504
vn 0.3880 -0.1787 -0.9042
vn 0.5724 -0.1093 -0.8127
vn 0.5220 0.3822 -0.7625
vn 0.9279 0.2774 0.2493
vn 0.2085 0.8356 -0.5082
vn 0.0022 0.8484 -0.5293
vn -0.4677 0.3922 -0.7921
vn -0.9936 -0.0670 -0.0909
vn -0.9858 -0.0397 -0.1629
vn -0.9995 -0.0279 0.0179
vn -0.3082 -0.1848 -0.9332
vn -0.4748 -0.0990 -0.8745
vn 0.2745 0.8953 -0.3509
vn 0.0472 0.9985 -0.0279
vn -0.0725 0.9778 -0.1967
vn 0.3671 0.9283 0.0590
vn -0.3207 0.9329 0.1637
vn -0.6339 0.7713 -0.0563
vt 0.231423 0.391941
vt 0.425779 0.391941
vt 0.231423 0.391941
vt 0.425779 0.391941
vt 0.231423 0.391941
vt 0.425779 0.391941
vt 0.516016 0.391941
vt 0.516016 0.391941
vt 0.516016 0.391941
vt 0.231423 0.391941
vt 0.231423 0.391941
vt 0.231423 0.391941
vt 0.231423 0.391941
vt 0.425779 0.391941
vt 0.516016 0.391941
vt 0.516016 0.391941
vt 0.516016 0.391941
vt 0.516016 0.391941
vt 0.516016 0.391941
vt 0.205325 0.391941
vt 0.205325 0.391941
vt 0.205325 0.391941
vt 0.205325 0.391941
vt 0.205325 0.391941
vt 0.205325 0.391941
vt 0.205325 0.391941
vt 0.164794 0.307471
vt 0.164794 0.307471
vt 0.164794 0.307471
vt 0.190892 0.307471
vt 0.190892 0.307471
vt 0.190892 0.307471
s 1
usemtl Sock
f 31/31/1 30/30/2 32/32/3
f 31/31/1 29/29/4 30/30/2
f 29/29/4 27/27/5 30/30/2
f 29/29/4 28/28/6 27/27/5
f 22/22/7 26/26/8 21/21/9
f 26/26/8 25/25/10 21/21/9
f 21/21/9 25/25/10 24/24/11
f 20/20/4 21/21/9 24/24/11
f 24/24/11 23/23/12 20/20/4
f 11/11/13 22/22/7 21/21/9
f 10/10/14 11/11/13 21/21/9
f 10/10/14 21/21/9 12/12/1
f 21/21/9 20/20/4 12/12/1
f 19/19/15 9/9/16 18/18/10
f 9/9/16 8/8/17 18/18/10
f 18/18/10 8/8/17 17/17/11
f 8/8/17 7/7/18 17/17/11
f 16/16/19 17/17/11 7/7/18
f 7/7/18 15/15/20 16/16/19
f 15/15/20 7/7/18 14/14/21
f 7/7/18 6/6/22 14/14/21
f 6/6/22 13/13/3 14/14/21
f 5/5/23 13/13/3 6/6/22
f 13/13/3 5/5/23 12/12/1
f 5/5/23 3/3/24 12/12/1
f 3/3/24 10/10/14 12/12/1
f 3/3/24 1/1/25 10/10/14
f 1/1/25 11/11/13 10/10/14
f 9/9/16 2/2/26 8/8/17
f 2/2/26 4/4/27 8/8/17
f 8/8/17 4/4/27 7/7/18
f 4/4/27 6/6/22 7/7/18
f 6/6/22 4/4/27 5/5/23
f 4/4/27 3/3/24 5/5/23
f 4/4/27 2/2/26 3/3/24
f 2/2/26 1/1/25 3/3/24
f 14/14/21 30/30/2 27/27/5 15/15/20
f 16/16/19 15/15/20 27/27/5 28/28/6
f 14/14/28 13/13/29 30/30/30 32/32/31
f 30/30/2 14/14/21 13/13/32 32/32/33
