# Blender 3.5.1
# www.blender.org
mtllib lower leg B.mtl
o lower_leg_B
v 0.019537 0.391457 -0.019279
v 0.095560 0.413879 -0.072250
v 0.095560 0.384325 -0.118410
v 0.129220 0.393787 -0.023672
v 0.043900 0.383225 -0.117345
v 0.043900 0.413101 -0.070933
v 0.020469 0.350084 -0.049679
v 0.047469 0.227648 -0.112340
v 0.032116 0.226599 -0.068543
v 0.052103 0.099898 -0.087002
v 0.034075 0.098849 -0.034125
v 0.087339 0.100728 -0.088004
v 0.090598 0.228478 -0.113449
v 0.052627 0.342957 0.017411
v 0.020469 0.350084 -0.049679
v 0.019537 0.391457 -0.019279
v 0.054528 0.226798 0.004557
v 0.032116 0.226599 -0.068543
v 0.034075 0.098849 -0.034125
v 0.057870 0.099049 0.019246
v 0.090808 0.099069 0.017980
v 0.114546 0.101376 -0.037491
v 0.115843 0.229126 -0.072271
v 0.123849 0.353493 -0.053300
v 0.097141 0.343225 0.015887
v 0.090817 0.226818 0.003155
v 0.129220 0.393787 -0.023672
v 0.097141 0.343225 0.015887
v 0.100249 0.389953 0.054945
v 0.052627 0.342957 0.017411
v 0.051694 0.390097 0.056485
v 0.019537 0.391457 -0.019279
vn -0.9933 -0.0871 0.0758
vn -0.5601 -0.3471 0.7522
vn -0.6893 0.3457 0.6366
vn 0.7067 0.3507 0.6145
vn 0.6184 -0.3632 0.6969
vn 0.9947 -0.1005 -0.0234
vn -0.5031 0.0857 0.8600
vn 0.5387 0.0971 0.8369
vn -0.5837 -0.0175 0.8118
vn 0.6097 -0.0040 0.7926
vn 0.9995 -0.0279 0.0179
vn 0.9858 -0.0397 -0.1630
vn -0.5601 -0.3472 0.7522
vn 0.9936 -0.0670 -0.0909
vn 0.4677 0.3922 -0.7921
vn 0.4748 -0.0990 -0.8745
vn 0.3082 -0.1848 -0.9332
vn -0.9648 -0.2490 0.0845
vn -0.9963 -0.0599 -0.0613
vn -0.9990 -0.0434 -0.0066
vn -0.9933 -0.0870 0.0758
vn -0.5220 0.3822 -0.7625
vn -0.5724 -0.1093 -0.8127
vn -0.3880 -0.1787 -0.9042
vn -0.9279 -0.3694 -0.0504
vn -0.2085 0.8356 -0.5082
vn -0.0022 0.8484 -0.5293
vn 0.0725 0.9778 -0.1968
vn 0.3653 0.9283 -0.0695
vn -0.2745 0.8953 -0.3509
vn 0.0242 0.9985 0.0492
vn 0.3207 0.9329 0.1637
vn 0.2749 0.9527 0.1299
vn 0.1532 0.9269 -0.3427
vn -0.2615 0.9164 -0.3031
vn -0.0902 0.9730 -0.2124
vn 0.3408 0.9395 0.0338
vn -0.4013 0.8968 0.1864
vn -0.6773 0.7348 -0.0370
vt 0.516016 0.391941
vt 0.425779 0.391941
vt 0.425779 0.391941
vt 0.231423 0.391941
vt 0.516016 0.391941
vt 0.516016 0.391941
vt 0.516016 0.391941
vt 0.516016 0.391941
vt 0.516016 0.391941
vt 0.516016 0.391941
vt 0.516016 0.391941
vt 0.425779 0.391941
vt 0.425779 0.391941
vt 0.205325 0.391941
vt 0.205325 0.391941
vt 0.205325 0.391941
vt 0.205325 0.391941
vt 0.205325 0.391941
vt 0.205325 0.391941
vt 0.205325 0.391941
vt 0.231423 0.391941
vt 0.231423 0.391941
vt 0.231423 0.391941
vt 0.231423 0.391941
vt 0.231423 0.391941
vt 0.231423 0.391941
vt 0.190892 0.307471
vt 0.190892 0.307471
vt 0.190892 0.307471
vt 0.164794 0.307471
vt 0.164794 0.307471
vt 0.164794 0.307471
s 1
usemtl Sock
f 32/32/1 30/30/2 31/31/3
f 31/31/3 30/30/2 29/29/4
f 30/30/2 28/28/5 29/29/4
f 29/29/4 28/28/5 27/27/6
f 20/20/7 21/21/8 17/17/9
f 21/21/8 26/26/10 17/17/9
f 21/21/8 22/22/11 26/26/10
f 22/22/11 23/23/12 26/26/10
f 26/26/10 23/23/12 25/25/5
f 17/17/9 26/26/10 25/25/5
f 14/14/13 17/17/9 25/25/5
f 23/23/12 24/24/14 25/25/5
f 24/24/14 4/4/6 25/25/5
f 4/4/6 24/24/14 3/3/15
f 13/13/16 3/3/15 24/24/14
f 23/23/12 13/13/16 24/24/14
f 12/12/17 13/13/16 23/23/12
f 22/22/11 12/12/17 23/23/12
f 19/19/18 20/20/7 17/17/9
f 18/18/19 19/19/18 17/17/9
f 18/18/19 17/17/9 15/15/20
f 17/17/9 14/14/13 15/15/20
f 16/16/21 15/15/20 14/14/13
f 3/3/15 13/13/16 5/5/22
f 13/13/16 8/8/23 5/5/22
f 13/13/16 12/12/17 8/8/23
f 12/12/17 10/10/24 8/8/23
f 10/10/24 11/11/25 9/9/19
f 8/8/23 10/10/24 9/9/19
f 8/8/23 9/9/19 7/7/20
f 5/5/22 8/8/23 7/7/20
f 7/7/20 1/1/1 5/5/22
f 6/6/26 5/5/22 1/1/1
f 5/5/22 6/6/26 2/2/27
f 3/3/15 5/5/22 2/2/27
f 4/4/6 3/3/15 2/2/27
f 31/31/3 29/29/4 2/2/27 6/6/26
f 29/29/28 27/27/29 2/2/30 4/4/31
f 2/2/27 29/29/4 27/27/32 4/4/33
f 6/6/34 1/1/35 31/31/36 32/32/37
f 31/31/3 6/6/26 1/1/38 32/32/39
