# Blender 3.5.1
# www.blender.org
mtllib lower arm A.mtl
o lower_arm_A
v -0.282951 0.988574 0.010808
v -0.287378 0.990939 -0.066084
v -0.234413 0.943300 -0.079971
v -0.312558 0.966201 -0.067609
v -0.231775 0.940943 0.012104
v -0.254687 0.912478 -0.082096
v -0.342240 0.936753 -0.071516
v -0.279144 0.879374 -0.087538
v -0.390407 0.888023 -0.081935
v -0.321150 0.825213 -0.093856
v -0.359270 0.772606 -0.100173
v -0.317704 0.822265 0.024216
v -0.276043 0.876722 0.018706
v -0.253489 0.910020 0.013958
v -0.355479 0.769363 0.029725
v -0.385846 0.884574 0.023665
v -0.338538 0.932608 0.017209
v -0.444298 0.836530 0.030079
v -0.450173 0.838953 -0.092469
v -0.408568 0.767338 -0.080284
v -0.448878 0.800489 -0.076921
v -0.462123 0.785388 -0.080118
v -0.461533 0.781998 0.006804
v -0.445751 0.796918 0.005507
v -0.406272 0.766494 0.006699
v -0.410768 0.749504 0.008177
v -0.416963 0.750891 -0.081932
v -0.458145 0.773985 -0.067120
v -0.458443 0.763542 -0.000263
v -0.424581 0.750556 0.001944
v -0.424739 0.751581 -0.069465
v -0.450173 0.838953 -0.092469
v -0.444298 0.836530 0.030079
v -0.445751 0.796918 0.005507
v -0.406272 0.766494 0.006699
v -0.355479 0.769363 0.029725
v -0.359270 0.772606 -0.100173
v -0.408568 0.767338 -0.080284
v -0.448878 0.800489 -0.076921
v -0.287378 0.990939 -0.066084
v -0.282951 0.988574 0.010808
v -0.312558 0.966201 -0.067609
v -0.309291 0.962383 0.012605
v -0.338538 0.932608 0.017209
v -0.342240 0.936753 -0.071516
v -0.253489 0.910020 0.013958
v -0.276043 0.876722 0.018706
v -0.338538 0.932608 0.017209
v -0.309291 0.962383 0.012605
v -0.231775 0.940943 0.012104
v -0.282951 0.988574 0.010808
vn -0.4801 0.5012 0.7199
vn -0.4567 0.5335 0.7119
vn 0.5543 -0.4264 0.7148
vn 0.6264 -0.3595 0.6917
vn -0.4402 0.5375 0.7192
vn 0.6230 -0.3672 0.6907
vn -0.5310 0.5936 -0.6048
vn -0.5092 0.6162 -0.6008
vn -0.4801 0.5013 0.7199
vn -0.5519 0.5700 -0.6087
vn -0.7632 0.1124 -0.6363
vn -0.7432 0.0556 0.6668
vn -0.7220 0.2818 -0.6319
vn 0.1938 -0.6206 -0.7598
vn 0.3189 -0.6356 -0.7031
vn 0.1966 -0.6543 0.7302
vn 0.3335 -0.6865 0.6461
vn -0.6901 0.2256 0.6876
vn -0.1244 -0.9860 -0.1110
vn -0.9676 -0.2525 -0.0056
vn 0.2449 -0.7073 -0.6631
vn 0.4444 -0.6444 0.6223
vn 0.0010 -0.6312 0.7757
vn -0.7359 0.1738 0.6544
vn -0.9474 -0.2989 0.1147
vn -0.7600 0.0753 -0.6456
vn -0.7431 0.0556 0.6668
vn -0.4124 0.5445 0.7304
vn 0.3189 -0.6357 -0.7030
vn -0.4554 0.6134 -0.6453
vn -0.5092 0.6163 -0.6008
vn 0.6121 -0.3804 0.6933
vn 0.5603 -0.3292 -0.7601
vn 0.6264 -0.3594 0.6917
vn 0.5723 -0.3105 -0.7590
vn 0.9037 0.4271 0.0295
vn 0.5643 -0.3053 -0.7670
vn 0.7586 0.1488 -0.6343
vn 0.4897 0.7782 -0.3932
vn 0.6745 0.7383 -0.0076
vt 0.000000 0.000000
vt 0.781639 0.510600
vt 0.781639 0.510600
vt 0.781639 0.510600
vt 0.700359 0.510600
vt 0.781639 0.510600
vt 0.781639 0.510600
vt 0.781639 0.510600
vt 0.781639 0.510600
vt 0.781639 0.510600
vt 0.781639 0.510600
vt 0.700359 0.510600
vt 0.700359 0.510600
vt 0.700359 0.510600
vt 0.700359 0.510600
vt 0.732618 0.510600
vt 0.732618 0.510600
vt 0.732618 0.510600
vt 0.781639 0.510600
vt 0.490752 0.044764
vt 0.490752 0.044764
vt 0.490752 0.044764
vt 0.458619 0.044764
vt 0.458619 0.044764
vt 0.437473 0.044764
vt 0.437473 0.044764
vt 0.490752 0.044764
vt 0.490752 0.044764
vt 0.458619 0.044764
vt 0.437473 0.044764
vt 0.490752 0.044764
vt 0.291339 0.212802
vt 0.242318 0.212802
vt 0.242318 0.212802
vt 0.210059 0.212802
vt 0.210059 0.212802
vt 0.291339 0.212802
vt 0.291339 0.212802
vt 0.291339 0.212802
vt 0.612379 0.108470
vt 0.490552 0.140290
vt 0.630433 0.163308
vt 0.504190 0.199508
vt 0.515406 0.267199
vt 0.655097 0.227343
vt 0.612231 0.559346
vt 0.615165 0.506954
vt 0.506856 0.515584
vt 0.513589 0.569575
vt 0.610331 0.608329
vt 0.520172 0.617310
s 1
usemtl Hood
f 51/51/1 49/49/2 50/50/3
f 49/49/2 46/46/4 50/50/3
f 49/49/2 48/48/5 46/46/4
f 48/48/5 47/47/6 46/46/4
f 42/42/7 45/45/8 44/44/5
f 44/44/5 43/43/2 42/42/7
f 43/43/2 41/41/9 42/42/7
f 42/42/7 41/41/9 40/40/10
f 39/39/11 34/34/12 32/32/13
f 38/38/14 39/39/11 32/32/13
f 37/37/15 38/38/14 32/32/13
f 35/35/16 38/38/14 37/37/15
f 36/36/17 35/35/16 37/37/15
f 35/35/16 36/36/17 33/33/18
f 34/34/12 35/35/16 33/33/18
f 34/34/12 33/33/18 32/32/13
f 31/31/19 28/28/20 27/27/21
f 31/31/19 27/27/21 26/26/22
f 30/30/23 31/31/19 26/26/22
f 30/30/23 26/26/22 23/23/24
f 29/29/25 30/30/23 23/23/24
f 28/28/20 29/29/25 23/23/24
f 22/22/26 28/28/20 23/23/24
f 28/28/20 22/22/26 27/27/21
f 27/27/21 22/22/26 20/20/14
f 26/26/22 27/27/21 20/20/14
f 25/25/16 26/26/22 20/20/14
f 23/23/24 26/26/22 25/25/16
f 24/24/27 23/23/24 25/25/16
f 23/23/24 24/24/27 21/21/11
f 22/22/26 23/23/24 21/21/11
f 22/22/26 21/21/11 20/20/14
f 18/18/18 15/15/17 16/16/28
f 11/11/29 19/19/13 9/9/30
f 19/19/13 18/18/18 9/9/30
f 18/18/18 16/16/28 9/9/30
f 9/9/30 16/16/28 7/7/31
f 16/16/28 17/17/5 7/7/31
f 17/17/5 16/16/28 13/13/6
f 16/16/28 12/12/32 13/13/6
f 15/15/17 12/12/32 16/16/28
f 12/12/32 15/15/17 10/10/33
f 15/15/17 11/11/29 10/10/33
f 14/14/34 6/6/35 5/5/36
f 13/13/6 6/6/35 14/14/34
f 8/8/37 6/6/35 13/13/6
f 13/13/6 12/12/32 8/8/37
f 12/12/32 10/10/33 8/8/37
f 10/10/33 11/11/29 9/9/30
f 10/10/33 9/9/30 8/8/37
f 9/9/30 7/7/31 8/8/37
f 8/8/37 7/7/31 6/6/35
f 7/7/31 4/4/7 6/6/35
f 6/6/35 4/4/7 3/3/38
f 3/3/38 5/5/36 6/6/35
f 4/4/7 2/2/39 3/3/38
f 5/5/36 3/3/38 2/2/39 1/1/40
f 28/28/20 31/31/19 30/30/23 29/29/25
