# Blender 3.5.1
# www.blender.org
mtllib upper leg B.mtl
o upperleg_B
v 0.015651 0.435205 -0.006976
v 0.019537 0.391197 -0.019279
v 0.043900 0.435505 -0.070908
v 0.129220 0.393527 -0.023672
v 0.019537 0.391197 -0.019279
v 0.134660 0.437534 -0.011369
v 0.098668 0.436284 -0.072225
v 0.103357 0.435669 0.063000
v 0.100249 0.389693 0.054945
v 0.051694 0.389837 0.056485
v 0.051694 0.435813 0.064541
v 0.015651 0.435205 -0.006976
v 0.124583 0.592514 0.075928
v 0.103357 0.435669 0.063000
v 0.051694 0.435813 0.064541
v 0.048700 0.594134 0.081790
v 0.005639 0.582754 -0.007297
v 0.015651 0.435205 -0.006976
v 0.043900 0.435505 -0.070908
v 0.042126 0.591707 -0.097803
v 0.121622 0.588187 -0.094764
v 0.098668 0.436284 -0.072225
v 0.158607 0.588981 -0.010750
v 0.134660 0.437534 -0.011369
v 0.103357 0.435669 0.063000
v 0.124583 0.592514 0.075928
v 0.019537 0.391197 -0.019279
v 0.043900 0.412841 -0.070933
v 0.043900 0.435505 -0.070908
v 0.095560 0.413619 -0.072250
v 0.098668 0.436284 -0.072225
v 0.129220 0.393527 -0.023672
v 0.004194 0.642004 -0.008463
v 0.005639 0.582754 -0.007297
v 0.042126 0.591707 -0.097803
v 0.023970 0.671055 -0.109995
v 0.000000 0.669858 -0.098869
v 0.004194 0.642004 -0.008463
v 0.023970 0.671055 -0.109995
v 0.130487 0.652921 0.083804
v 0.124583 0.592514 0.075928
v 0.048700 0.594134 0.081790
v 0.033126 0.654465 0.082854
v 0.004194 0.642004 -0.008463
v 0.005639 0.582754 -0.007297
v 0.121089 0.652647 -0.115865
v 0.023970 0.671055 -0.109995
v 0.042126 0.591707 -0.097803
v 0.121622 0.588187 -0.094764
v 0.169795 0.652948 -0.010072
v 0.158607 0.588981 -0.010750
v 0.124583 0.592514 0.075928
v 0.130487 0.652921 0.083804
vn 0.9947 -0.1004 -0.0234
vn 0.0238 -0.1979 -0.9799
vn 0.4850 -0.1037 -0.8683
vn -0.5636 -0.0606 -0.8238
vn -0.2058 -0.8302 -0.5180
vn -0.3090 -0.9210 -0.2371
vn 0.5864 -0.1595 0.7941
vn 0.5507 -0.1654 0.8182
vn 0.9842 -0.1755 -0.0234
vn 0.9894 -0.1407 -0.0349
vn 0.5728 -0.2329 -0.7859
vn -0.5444 -0.2057 -0.8132
vn -0.9981 -0.0504 0.0344
vn -0.9941 -0.0905 0.0604
vn -0.5082 -0.1296 0.8515
vn -0.4841 -0.1193 0.8668
vn 0.5864 -0.1595 0.7942
vn 0.5506 -0.1654 0.8182
vn -0.5082 -0.1296 0.8514
vn -0.3390 -0.9261 0.1656
vn -0.4848 -0.5138 0.7078
vn 0.5148 -0.5491 0.6584
vn 0.7581 0.6498 -0.0550
vn 0.4851 -0.1037 -0.8683
vn -0.9933 -0.0871 0.0758
vn 0.4457 0.2428 0.8616
vn 0.8047 0.5848 0.1024
vn 0.5196 0.5440 -0.6589
vn -0.1172 0.4162 -0.9017
vn -0.4841 -0.1193 0.8669
vn -0.9530 0.2383 0.1872
vn -0.4791 0.8199 0.3136
vn 0.7004 0.2312 0.6752
vn -0.9876 0.1552 -0.0219
vn -0.2406 0.8892 0.3892
vn -0.9629 -0.1436 -0.2286
vn -0.3426 -0.3769 -0.8606
vn -0.8709 -0.4912 -0.0174
vn -0.9981 -0.0505 0.0344
vn -0.2526 0.9649 0.0718
vn -0.3239 0.8908 -0.3186
vn -0.3207 -0.9329 -0.1637
vt 0.516016 0.391941
vt 0.516016 0.391941
vt 0.516016 0.391941
vt 0.231423 0.391941
vt 0.205325 0.391941
vt 0.231423 0.391941
vt 0.425779 0.391941
vt 0.231423 0.391941
vt 0.231423 0.391941
vt 0.205325 0.391941
vt 0.205325 0.391941
vt 0.205325 0.391941
vt 0.021071 0.828513
vt 0.031792 0.708912
vt 0.117472 0.719107
vt 0.111449 0.836252
vt 0.212287 0.846462
vt 0.225388 0.730999
vt 0.340855 0.743709
vt 0.335971 0.855590
vt 0.451876 0.865308
vt 0.464567 0.756458
vt 0.564099 0.873257
vt 0.577529 0.761975
vt 0.691640 0.766589
vt 0.674090 0.877746
vt 0.231406 0.309253
vt 0.231406 0.309253
vt 0.231406 0.309253
vt 0.190582 0.309253
vt 0.190582 0.309253
vt 0.102654 0.309253
vt 0.561684 0.236882
vt 0.561684 0.236882
vt 0.561684 0.236882
vt 0.561684 0.236882
vt 0.477954 0.098562
vt 0.477634 0.102722
vt 0.479109 0.098605
vt 0.471355 0.236882
vt 0.472722 0.236882
vt 0.463991 0.236882
vt 0.463071 0.236882
vt 0.463071 0.236882
vt 0.463071 0.236882
vt 0.509824 0.166582
vt 0.538465 0.166582
vt 0.535298 0.166582
vt 0.495953 0.166582
vt 0.448136 0.166582
vt 0.448136 0.166582
vt 0.448136 0.166582
vt 0.448136 0.166582
s 1
usemtl Sock
f 32/32/1 30/30/2 31/31/3
f 31/31/3 30/30/2 29/29/4
f 30/30/2 28/28/5 29/29/4
f 29/29/4 28/28/5 27/27/6
f 26/26/7 25/25/8 23/23/9
f 25/25/8 24/24/10 23/23/9
f 24/24/10 22/22/3 23/23/9
f 22/22/3 21/21/11 23/23/9
f 22/22/3 19/19/4 21/21/11
f 19/19/4 20/20/12 21/21/11
f 20/20/12 19/19/4 17/17/13
f 19/19/4 18/18/14 17/17/13
f 18/18/14 15/15/15 17/17/13
f 15/15/15 16/16/16 17/17/13
f 16/16/16 15/15/15 13/13/17
f 15/15/15 14/14/18 13/13/17
f 11/11/19 12/12/14 5/5/20
f 5/5/20 10/10/21 11/11/19
f 11/11/19 10/10/21 8/8/18
f 10/10/21 9/9/22 8/8/18
f 8/8/18 9/9/22 4/4/23
f 8/8/18 4/4/23 6/6/10
f 7/7/24 6/6/10 4/4/23
f 3/3/4 2/2/25 1/1/14
f 9/9/22 10/10/21 28/28/5 30/30/2
f 10/10/21 5/5/20 27/27/6 28/28/5
f 9/9/22 32/32/40 30/30/41 4/4/23
f 9/9/22 30/30/2 4/4/42 32/32/40
usemtl Head
f 53/53/26 52/52/7 50/50/27
f 52/52/7 51/51/9 50/50/27
f 51/51/9 49/49/11 50/50/27
f 49/49/11 46/46/28 50/50/27
f 49/49/11 48/48/12 46/46/28
f 48/48/12 47/47/29 46/46/28
f 45/45/13 42/42/30 44/44/31
f 42/42/30 43/43/32 44/44/31
f 43/43/32 42/42/30 40/40/33
f 42/42/30 41/41/7 40/40/33
f 39/39/34 38/38/35 37/37/36
f 36/36/37 35/35/12 33/33/38
f 35/35/12 34/34/39 33/33/38
f 43/43/32 40/40/33 46/46/28 47/47/29
f 50/50/27 46/46/28 53/53/26
f 39/39/34 44/44/31 43/43/32 38/38/35
f 38/38/35 43/43/32 39/39/34 37/37/36
