# Blender 3.5.1
# www.blender.org
mtllib upper arm B.mtl
o upper_arm_B
v 0.126275 1.028887 0.017602
v 0.154190 1.133183 0.015599
v 0.220719 1.052195 0.010210
v 0.175277 0.997984 0.011557
v 0.234414 0.942277 -0.079971
v 0.177579 1.000653 -0.079262
v 0.231775 0.939920 0.012104
v 0.282951 0.987551 0.010808
v 0.223348 1.056148 -0.065575
v 0.154804 1.138255 -0.070260
v 0.120781 1.037455 -0.085110
v 0.287378 0.989917 -0.066084
v 0.126275 1.028887 0.017602
v 0.175277 0.997984 0.011557
v 0.177579 1.000653 -0.079262
v 0.120781 1.037455 -0.085110
vn 0.3036 -0.2053 -0.9304
vn -0.3512 -0.4875 -0.7994
vn 0.7041 -0.3352 0.6260
vn -0.4130 -0.5644 0.7148
vn 0.4801 0.5012 0.7199
vn 0.6936 0.6386 -0.3334
vn 0.5973 0.5152 -0.6146
vn -0.4396 -0.4185 -0.7947
vn -0.2890 -0.0778 -0.9542
vn 0.0838 0.7779 -0.6228
vn -0.0098 0.8321 0.5545
vn 0.5344 0.4444 0.7190
vn -0.2293 -0.3316 0.9151
vn 0.3885 -0.2642 0.8828
vt 0.700359 0.510600
vt 0.732618 0.510600
vt 0.732618 0.510600
vt 0.700359 0.510600
vt 0.781639 0.510600
vt 0.781639 0.510600
vt 0.700359 0.510600
vt 0.732618 0.510600
vt 0.781639 0.510600
vt 0.781639 0.510600
vt 0.781639 0.510600
vt 0.781639 0.510600
vt 0.172143 0.254340
vt 0.172143 0.254340
vt 0.188649 0.254340
vt 0.188649 0.254340
s 1
usemtl Hood
f 16/16/1 15/15/2 13/13/3
f 15/15/2 14/14/4 13/13/3
f 8/8/5 12/12/6 9/9/7
f 12/12/6 5/5/8 6/6/2
f 9/9/7 12/12/6 6/6/2
f 9/9/7 6/6/2 11/11/9
f 11/11/9 10/10/10 9/9/7
f 9/9/7 10/10/10 2/2/11
f 3/3/12 9/9/7 2/2/11
f 3/3/12 8/8/5 9/9/7
f 8/8/5 3/3/12 4/4/4
f 7/7/13 8/8/5 4/4/4
f 5/5/8 7/7/13 4/4/4
f 6/6/2 5/5/8 4/4/4
f 1/1/14 4/4/4 3/3/12
f 1/1/14 3/3/12 2/2/11
f 2/2/11 10/10/10 11/11/9 1/1/14
