# Blender 3.5.1
# www.blender.org
mtllib upper torso.mtl
o uppertorso
v 0.000000 1.198795 0.043365
v 0.035086 1.202405 0.025192
v 0.035086 1.165900 0.021008
v 0.000000 1.165088 0.038706
v -0.035086 1.165961 0.021016
v -0.035086 1.202422 0.025183
v -0.045259 1.206138 -0.000373
v -0.035086 1.202422 0.025183
v -0.035086 1.165961 0.021016
v -0.045259 1.174380 -0.004992
v -0.036807 1.210359 -0.036343
v -0.037343 1.177553 -0.039433
v 0.000000 1.209910 -0.054900
v 0.000000 1.182968 -0.058873
v 0.037344 1.177553 -0.039433
v 0.036807 1.210374 -0.036368
v 0.045259 1.174386 -0.004992
v 0.045259 1.206130 -0.000368
v 0.035086 1.165900 0.021008
v 0.035086 1.202405 0.025192
v 0.080598 1.167102 -0.000226
v 0.095250 1.180931 -0.060245
v 0.103224 1.156361 -0.073572
v -0.154190 1.133101 0.015599
v -0.135608 1.131598 0.024787
v -0.126284 1.028827 0.017673
v -0.114219 1.150159 0.013648
v -0.154804 1.138176 -0.070259
v 0.092228 1.189744 -0.139647
v 0.048996 1.199537 -0.059277
v 0.045886 1.198585 -0.067057
v -0.059860 1.176635 0.003297
v -0.048021 1.164734 0.014347
v -0.058315 1.168625 0.003964
v -0.056231 1.182062 0.001805
v -0.079821 1.175424 0.000531
v -0.095250 1.180932 -0.060247
v -0.049002 1.199446 -0.059213
v -0.102155 1.189550 -0.142601
v -0.045893 1.198516 -0.067007
v -0.092224 1.189738 -0.139664
v 0.000000 1.187736 -0.189731
v 0.000000 1.188459 -0.182249
v 0.102159 1.189556 -0.142582
v 0.095250 1.180931 -0.060245
v 0.056234 1.182087 0.001790
v 0.079825 1.175459 0.000510
v 0.059864 1.176667 0.003279
v 0.048022 1.164730 0.014344
v 0.058320 1.168663 0.003945
v 0.080598 1.167102 -0.000226
v 0.103224 1.156361 -0.073572
v -0.103225 1.156353 -0.073566
v -0.080593 1.167048 -0.000201
v 0.126748 0.919480 0.006760
v 0.090712 0.921683 0.065717
v 0.126275 1.028807 0.017602
v 0.097870 1.039768 0.071847
v 0.135612 1.131616 0.024785
v 0.096079 1.133028 0.046797
v 0.114221 1.150168 0.013645
v 0.105718 0.940354 -0.077667
v 0.000000 0.925700 0.076632
v 0.000000 1.051643 0.080799
v -0.097870 1.039770 0.071847
v -0.090712 0.921682 0.065717
v -0.114219 1.150159 0.013648
v -0.096080 1.133029 0.046794
v -0.135608 1.131598 0.024787
v -0.126284 1.028827 0.017673
v -0.126748 0.919481 0.006759
v -0.105718 0.940355 -0.077667
v 0.035086 1.165900 0.021008
v 0.045259 1.174386 -0.004992
v 0.000000 1.146916 0.051124
v 0.000000 1.165088 0.038706
v -0.035086 1.165961 0.021016
v -0.045259 1.174380 -0.004992
v 0.114221 1.150168 0.013645
v 0.154804 1.138175 -0.070260
v 0.154190 1.133102 0.015599
v 0.135612 1.131616 0.024785
v 0.126275 1.028807 0.017602
v 0.000000 1.197078 -0.078617
v 0.092228 1.189744 -0.139647
v 0.045886 1.198585 -0.067057
v 0.048996 1.199537 -0.059277
v 0.000000 1.197908 -0.071627
v -0.049002 1.199446 -0.059213
v -0.045893 1.198516 -0.067007
v -0.092224 1.189738 -0.139664
v 0.000000 1.188459 -0.182249
v 0.000000 1.197078 -0.078617
v 0.096079 1.133028 0.046797
v 0.097870 1.039768 0.071847
v 0.000000 1.051643 0.080799
v 0.000000 1.146916 0.051124
v 0.058320 1.168663 0.003945
v 0.080598 1.167102 -0.000226
v 0.103224 1.156361 -0.073572
v 0.048022 1.164730 0.014344
v 0.037344 1.177553 -0.039433
v 0.048996 1.199537 -0.059277
v 0.048022 1.164730 0.014344
v 0.056234 1.182087 0.001790
v -0.058315 1.168625 0.003964
v -0.048021 1.164734 0.014347
v -0.103225 1.156353 -0.073566
v -0.080593 1.167048 -0.000201
v -0.096080 1.133029 0.046794
v 0.000000 1.146916 0.051124
v 0.000000 1.051643 0.080799
v -0.097870 1.039770 0.071847
v 0.135610 1.036160 0.053466
v 0.136127 1.014521 0.052738
v 0.136827 1.015026 0.054640
v 0.136837 1.037056 0.056791
v 0.124044 1.032745 0.065570
v 0.139480 1.038505 0.057639
v 0.136971 1.035664 0.050033
v 0.115737 1.132130 0.036964
v 0.116510 1.139233 0.041529
v 0.095152 1.152031 0.024045
v 0.094833 1.160370 0.025481
v 0.080598 1.167102 -0.000226
v 0.079825 1.175459 0.000510
v 0.076858 1.161416 0.034699
v 0.059864 1.176667 0.003279
v 0.058320 1.168663 0.003945
v 0.075460 1.153462 0.035351
v 0.100265 1.137155 0.053660
v 0.098130 1.129523 0.051423
v 0.123455 1.033034 0.068678
v 0.119514 1.028516 0.062889
v 0.122540 1.030719 0.063208
v 0.129510 1.012540 0.059651
v 0.128651 1.011386 0.058299
v -0.124013 1.032515 0.065601
v -0.136791 1.036747 0.056827
v -0.139434 1.038193 0.057679
v -0.123425 1.032807 0.068710
v -0.100265 1.137157 0.053659
v -0.116496 1.139182 0.041578
v -0.094858 1.160474 0.025392
v -0.076857 1.161413 0.034700
v -0.058315 1.168625 0.003964
v -0.059860 1.176635 0.003297
v -0.075450 1.153373 0.035368
v -0.098131 1.129527 0.051421
v -0.119514 1.028521 0.062890
v -0.122513 1.030511 0.063236
v -0.129516 1.012569 0.059662
v -0.136826 1.015010 0.054644
v -0.135568 1.035871 0.053499
v -0.136955 1.035571 0.050032
v -0.115722 1.132077 0.037015
v -0.095175 1.152130 0.023959
v -0.136126 1.014510 0.052741
v -0.128658 1.011422 0.058310
v -0.080593 1.167048 -0.000201
v -0.079821 1.175424 0.000531
v -0.114219 1.150159 0.013648
v -0.154804 1.138176 -0.070259
v -0.103225 1.156353 -0.073566
v -0.120780 1.037416 -0.085219
v 0.000000 1.040502 -0.114415
v -0.103225 1.156353 -0.073566
v -0.120780 1.037416 -0.085219
v 0.120781 1.037374 -0.085110
v 0.103224 1.156361 -0.073572
v -0.120780 1.037416 -0.085219
v -0.126284 1.028827 0.017673
v -0.105718 0.940355 -0.077667
v -0.037343 1.177553 -0.039433
v -0.048021 1.164734 0.014347
v -0.049002 1.199446 -0.059213
v -0.056231 1.182062 0.001805
v -0.048021 1.164734 0.014347
v -0.037343 1.177553 -0.039433
v -0.045259 1.174380 -0.004992
v 0.129510 1.012540 0.059651
v 0.136827 1.015026 0.054640
v 0.136127 1.014521 0.052738
v 0.128651 1.011386 0.058299
v 0.122540 1.030719 0.063208
v 0.135610 1.036160 0.053466
v 0.119514 1.028516 0.062889
v 0.136971 1.035664 0.050033
v 0.098130 1.129523 0.051423
v 0.115737 1.132130 0.036964
v 0.095152 1.152031 0.024045
v 0.075460 1.153462 0.035351
v -0.129516 1.012569 0.059662
v -0.136126 1.014510 0.052741
v -0.136826 1.015010 0.054644
v -0.128658 1.011422 0.058310
v -0.122513 1.030511 0.063236
v -0.135568 1.035871 0.053499
v -0.119514 1.028521 0.062890
v -0.136955 1.035571 0.050032
v -0.098131 1.129527 0.051421
v -0.115722 1.132077 0.037015
v -0.095175 1.152130 0.023959
v -0.075450 1.153373 0.035368
v 0.000000 1.182968 -0.058873
v -0.037343 1.177553 -0.039433
v -0.049002 1.199446 -0.059213
v 0.000000 1.197908 -0.071627
v 0.048996 1.199537 -0.059277
v 0.037344 1.177553 -0.039433
v -0.103225 1.156353 -0.073566
v 0.000000 1.056913 -0.143897
v -0.102155 1.189550 -0.142601
v 0.000000 1.187736 -0.189731
v 0.102159 1.189556 -0.142582
v 0.103224 1.156361 -0.073572
v 0.000000 1.040502 -0.114415
v 0.120781 1.037374 -0.085110
v 0.105718 0.940354 -0.077667
v 0.126275 1.028807 0.017602
v 0.000000 1.040502 -0.114415
v -0.120780 1.037416 -0.085219
v -0.105718 0.940355 -0.077667
v 0.000000 0.942228 -0.105413
v 0.105718 0.940354 -0.077667
v 0.120781 1.037374 -0.085110
v 0.048022 1.164730 0.014344
v 0.045259 1.174386 -0.004992
v 0.037344 1.177553 -0.039433
v 0.114221 1.150168 0.013645
v 0.103224 1.156361 -0.073572
v 0.154804 1.138175 -0.070260
v 0.120781 1.037374 -0.085110
vn 0.6798 -0.4862 0.5491
vn 0.5087 0.4964 0.7035
vn 0.6445 0.4468 -0.6205
vn 0.9990 -0.0280 -0.0357
vn 0.0158 0.3215 -0.9468
vn 0.1223 0.9925 -0.0033
vn -0.3583 0.1754 -0.9170
vn -0.0000 1.0000 -0.0037
vn -0.1223 0.9925 -0.0033
vn -0.9372 0.2212 0.2696
vn -0.9990 -0.0280 -0.0357
vn -0.6556 0.4503 -0.6061
vn -0.5087 0.4969 0.7031
vn -0.5720 -0.6921 0.4402
vn -0.5458 -0.0594 0.8358
vn -0.5087 0.4970 0.7031
vn 0.7158 0.1144 0.6888
vn -0.0000 0.2584 0.9660
vn 0.5087 0.4964 0.7034
vn 0.6449 -0.2713 0.7145
vn 0.8397 0.4759 -0.2615
vn 0.7792 -0.5307 -0.3335
vn 0.8854 0.2963 -0.3582
vn 0.3009 0.9015 0.3110
vn 0.2676 0.8470 0.4594
vn 0.3036 -0.2053 -0.9304
vn 0.6847 -0.1771 -0.7069
vn -0.0000 -0.2992 -0.9542
vn -0.0000 -0.7802 -0.6255
vn -0.6847 -0.1766 -0.7071
vn -0.3036 -0.2057 -0.9304
vn 0.7040 -0.3352 0.6261
vn 0.7157 0.1229 -0.6875
vn -0.0000 -0.7327 -0.6806
vn -0.8854 0.2962 -0.3582
vn 0.8854 0.2962 -0.3582
vn 0.7639 0.4081 -0.4999
vn -0.0009 0.4553 -0.8903
vn -0.7635 0.4081 -0.5006
vn 0.0066 0.9716 0.2365
vn -0.0000 0.9544 0.2984
vn -0.0066 0.9714 0.2372
vn -0.3042 -0.6538 0.6929
vn 0.8082 -0.4887 0.3285
vn -0.6581 -0.7266 -0.1975
vn -0.3003 -0.4938 -0.8161
vn 0.9012 -0.4066 0.1497
vn -0.4057 -0.1511 -0.9014
vn -0.4195 -0.5907 -0.6893
vn 0.5128 -0.8585 -0.0088
vn -0.5994 -0.7967 -0.0776
vn -0.0683 -0.9501 0.3043
vn -0.3015 -0.5326 -0.7908
vn 0.4648 -0.8779 -0.1151
vn -0.1266 -0.5597 0.8190
vn -0.8747 -0.4219 0.2383
vn -0.8082 -0.4886 0.3288
vn 0.3042 -0.6537 0.6930
vn 0.6580 -0.7267 -0.1973
vn 0.3006 -0.4938 -0.8160
vn -0.9012 -0.4067 0.1497
vn 0.4056 -0.1510 -0.9015
vn 0.4193 -0.5912 -0.6889
vn -0.5128 -0.8585 -0.0088
vn 0.5994 -0.7968 -0.0762
vn 0.0683 -0.9497 0.3056
vn 0.3016 -0.5327 -0.7908
vn -0.4648 -0.8779 -0.1153
vn 0.1265 -0.5599 0.8189
vn 0.8748 -0.4218 0.2384
vn -0.1223 0.9925 -0.0032
vn -0.2676 0.8471 0.4592
vn 0.1938 0.8139 0.5477
vn -0.0065 0.9714 0.2372
vn -0.7157 0.1230 -0.6875
vn -0.7042 -0.3349 0.6261
vn -0.3036 -0.2057 -0.9303
vn -0.0000 -0.2991 -0.9542
vn -0.3035 -0.2057 -0.9304
vn -0.8854 0.2963 -0.3582
vn -0.6953 -0.5962 -0.4015
vn -0.8580 0.4088 -0.3111
vn -0.3009 0.9014 0.3112
vn 0.3028 0.6415 0.7048
vn -0.1071 0.4846 0.8681
vn -0.6415 0.7356 0.2177
vn -0.7319 0.6812 0.0174
vn 0.4648 -0.8779 -0.1150
vn -0.0683 -0.9501 0.3042
vn -0.8748 -0.4219 0.2383
vn -0.8336 0.5324 0.1473
vn -0.4058 -0.1511 -0.9014
vn -0.9089 -0.2601 0.3259
vn -0.4195 -0.5908 -0.6892
vn -0.6808 -0.7009 0.2127
vn -0.4888 -0.7367 0.4672
vn -0.0292 -0.4374 0.8988
vn 0.5127 -0.8585 -0.0087
vn 0.9012 -0.4066 0.1498
vn 0.0303 0.3584 0.9331
vn 0.8083 -0.4888 0.3284
vn -0.3041 -0.6537 0.6929
vn 0.1266 -0.5598 0.8189
vn 0.8748 -0.4219 0.2383
vn 0.4889 -0.7361 0.4680
vn 0.0296 -0.4362 0.8994
vn -0.5127 -0.8585 -0.0088
vn -0.3028 0.6415 0.7048
vn -0.0302 0.3584 0.9331
vn 0.7319 0.6812 0.0176
vn 0.8337 0.5323 0.1472
vn 0.9090 -0.2592 0.3262
vn -0.9012 -0.4066 0.1497
vn 0.3041 -0.6536 0.6930
vn 0.1072 0.4847 0.8681
vn 0.6415 0.7356 0.2175
vn 0.6581 -0.7266 -0.1973
vn 0.6808 -0.7005 0.2138
vn 0.3015 -0.5327 -0.7908
vn -0.5148 0.0313 0.8567
vn -0.0000 0.1370 0.9906
vn -0.2778 0.5336 0.7988
vn -0.0000 0.5074 0.8617
vn -0.8854 0.2963 -0.3581
vn -0.2676 0.8470 0.4592
vn -0.1937 0.8139 0.5477
vn 0.0066 0.9716 0.2366
vn 0.2675 0.8470 0.4593
vn 0.8854 0.2962 -0.3583
vn 0.3041 -0.6537 0.6930
vn 0.6580 -0.7267 -0.1974
vn -0.0000 0.1371 0.9906
vn 0.2778 0.5336 0.7988
vn 0.5148 0.0313 0.8567
vn -0.0015 0.9958 -0.0918
vn -0.0000 0.9941 -0.1082
vn -0.0005 0.9959 -0.0907
vn 0.0013 0.9955 -0.0945
vn 0.0013 0.9955 -0.0944
vn -0.0001 0.9928 -0.1202
vn -0.0000 0.9941 -0.1083
vn -0.0065 0.9715 0.2371
vn 0.0010 0.9927 -0.1205
vn 0.4637 0.3848 0.7980
vn 0.5620 0.5910 0.5786
vn 0.3009 0.9015 0.3111
vn 0.4878 0.6533 -0.5791
vn -0.9990 -0.0280 -0.0358
vn -0.5087 0.4969 0.7030
vn -0.2778 0.5335 0.7988
vn 0.2778 0.5335 0.7988
vn 0.2676 0.8470 0.4593
vn -0.6554 -0.7549 0.0221
vn -0.9360 -0.3252 -0.1345
vn -0.4435 -0.7990 0.4060
vn -0.5148 0.0313 0.8568
vn -0.4636 0.3846 0.7982
vn 0.1477 -0.7875 0.5983
vn 0.4439 -0.7988 0.4060
vn 0.6560 -0.7545 0.0223
vn 0.9360 -0.3252 -0.1345
vn 0.3010 0.9015 0.3111
vn 0.4637 0.3848 0.7981
vn -0.7597 0.6154 0.2100
vn -0.7634 0.4081 -0.5006
vn 0.7597 0.6155 0.2100
vn 0.6581 -0.7266 -0.1974
vn 0.2677 0.8470 0.4593
vn 0.3042 -0.6536 0.6930
vn -0.1937 0.8140 0.5476
vn -0.0004 0.9959 -0.0907
vn -0.0015 0.9958 -0.0917
vn -0.0010 0.4554 -0.8903
vn -0.0001 0.9928 -0.1201
vn -0.1071 0.4847 0.8681
vn -0.4878 0.6533 -0.5790
vn -0.8535 0.3782 0.3586
vn -0.7295 -0.6839 -0.0048
vn 0.7597 0.6154 0.2100
vn 0.6581 -0.7267 -0.1973
vn 0.9660 -0.2585 -0.0018
vn 0.7763 -0.6301 -0.0183
vt 0.458633 0.236882
vt 0.471355 0.236882
vt 0.471355 0.236882
vt 0.458633 0.236882
vt 0.471355 0.236882
vt 0.471355 0.236882
vt 0.490033 0.171097
vt 0.465550 0.171097
vt 0.465550 0.171097
vt 0.490033 0.171097
vt 0.527238 0.171097
vt 0.527238 0.171097
vt 0.564443 0.171097
vt 0.564443 0.171097
vt 0.527238 0.171097
vt 0.527238 0.171097
vt 0.490033 0.171097
vt 0.490033 0.171097
vt 0.465550 0.171097
vt 0.465550 0.171097
vt 0.229709 0.225363
vt 0.210745 0.225363
vt 0.235970 0.225363
vt 0.220544 0.213736
vt 0.201517 0.213736
vt 0.201517 0.213736
vt 0.220544 0.213736
vt 0.249457 0.213736
vt 0.786401 0.510600
vt 0.781639 0.510600
vt 0.788598 0.510600
vt 0.736177 0.510600
vt 0.732618 0.510600
vt 0.735018 0.510600
vt 0.732618 0.510600
vt 0.758855 0.510600
vt 0.756414 0.510600
vt 0.781639 0.510600
vt 0.781639 0.510600
vt 0.788598 0.510600
vt 0.786401 0.510600
vt 0.830660 0.510600
vt 0.830661 0.510600
vt 0.781639 0.510600
vt 0.756414 0.510600
vt 0.732618 0.510600
vt 0.758855 0.510600
vt 0.736177 0.510600
vt 0.732618 0.510600
vt 0.735018 0.510600
vt 0.775378 0.510600
vt 0.781639 0.510600
vt 0.781639 0.510600
vt 0.775378 0.510600
vt 0.700359 0.510600
vt 0.700359 0.510600
vt 0.700359 0.510600
vt 0.700359 0.510600
vt 0.700359 0.510600
vt 0.700359 0.510600
vt 0.732618 0.510600
vt 0.781639 0.510600
vt 0.683597 0.510600
vt 0.683597 0.510600
vt 0.700359 0.510600
vt 0.700359 0.510600
vt 0.732618 0.510600
vt 0.700359 0.510600
vt 0.700359 0.510600
vt 0.700359 0.510600
vt 0.700359 0.510600
vt 0.781639 0.510600
vt 0.700359 0.510600
vt 0.732618 0.510600
vt 0.683597 0.510600
vt 0.683597 0.510600
vt 0.700359 0.510600
vt 0.732618 0.510600
vt 0.220544 0.213736
vt 0.249457 0.213736
vt 0.220544 0.213736
vt 0.201517 0.213736
vt 0.201517 0.213736
vt 0.415958 0.953956
vt 0.367848 0.953956
vt 0.370045 0.953956
vt 0.363086 0.953956
vt 0.412107 0.953956
vt 0.363086 0.953956
vt 0.370045 0.953956
vt 0.367848 0.953956
vt 0.412108 0.953956
vt 0.412105 0.953956
vt 0.940679 0.933382
vt 0.940257 0.726145
vt 0.729114 0.742253
vt 0.730342 0.944167
vt 0.166248 0.247804
vt 0.192540 0.247804
vt 0.196619 0.247804
vt 0.164684 0.247804
vt 0.173414 0.256208
vt 0.173414 0.256208
vt 0.195598 0.256208
vt 0.195598 0.256208
vt 0.166248 0.247804
vt 0.164684 0.247804
vt 0.196619 0.247804
vt 0.192540 0.247804
vt 0.944043 0.702648
vt 0.690028 0.715672
vt 0.688545 0.471829
vt 0.943534 0.452377
vt 0.175647 0.818667
vt 0.175647 0.818667
vt 0.169589 0.818667
vt 0.169589 0.818667
vt 0.154128 0.818667
vt 0.167877 0.818667
vt 0.182021 0.818667
vt 0.182021 0.818667
vt 0.167877 0.818667
vt 0.182021 0.818667
vt 0.167877 0.818667
vt 0.182021 0.818667
vt 0.167877 0.818667
vt 0.148464 0.818667
vt 0.148464 0.818667
vt 0.147472 0.818667
vt 0.147472 0.818667
vt 0.148464 0.818667
vt 0.147472 0.818667
vt 0.148464 0.818667
vt 0.147472 0.818667
vt 0.151434 0.818667
vt 0.154128 0.818667
vt 0.151434 0.818667
vt 0.154128 0.818667
vt 0.169589 0.818667
vt 0.167877 0.818667
vt 0.148464 0.818667
vt 0.148464 0.818667
vt 0.167877 0.818667
vt 0.167877 0.818667
vt 0.148464 0.818667
vt 0.147472 0.818667
vt 0.148464 0.818667
vt 0.147472 0.818667
vt 0.147472 0.818667
vt 0.147472 0.818667
vt 0.151434 0.818667
vt 0.154128 0.818667
vt 0.169589 0.818667
vt 0.175647 0.818667
vt 0.182021 0.818667
vt 0.182021 0.818667
vt 0.182021 0.818667
vt 0.175647 0.818667
vt 0.151434 0.818667
vt 0.182021 0.818667
vt 0.167877 0.818667
vt 0.375564 0.433864
vt 0.404477 0.433864
vt 0.404477 0.433864
vt 0.404477 0.433864
vt 0.854668 0.653451
vt 0.790670 0.706907
vt 0.784887 0.638642
vt 0.784887 0.638642
vt 0.790670 0.706907
vt 0.185813 0.267413
vt 0.145099 0.267413
vt 0.185813 0.267413
vt 0.173414 0.256208
vt 0.195598 0.256208
vt 0.173414 0.256208
vt 0.195598 0.256208
vt 0.639347 0.525458
vt 0.673280 0.525458
vt 0.639347 0.525458
vt 0.742793 0.510600
vt 0.760855 0.510600
vt 0.767933 0.510600
vt 0.739646 0.510600
vt 0.739646 0.510600
vt 0.767933 0.510600
vt 0.735018 0.510600
vt 0.775378 0.510600
vt 0.735018 0.510600
vt 0.775378 0.510600
vt 0.775378 0.510600
vt 0.735018 0.510600
vt 0.742793 0.510600
vt 0.767933 0.510600
vt 0.760855 0.510600
vt 0.739646 0.510600
vt 0.739646 0.510600
vt 0.767933 0.510600
vt 0.735018 0.510600
vt 0.775378 0.510600
vt 0.735018 0.510600
vt 0.775378 0.510600
vt 0.775378 0.510600
vt 0.735018 0.510600
vt 0.401230 0.939801
vt 0.423414 0.939801
vt 0.423414 0.939801
vt 0.401230 0.939801
vt 0.423414 0.939801
vt 0.423414 0.939801
vt 0.407571 0.496877
vt 0.446723 0.496877
vt 0.407571 0.496877
vt 0.446723 0.496877
vt 0.407571 0.496877
vt 0.407571 0.496877
vt 0.446723 0.496877
vt 0.185813 0.267413
vt 0.185813 0.267413
vt 0.145099 0.267413
vt 0.590876 0.408119
vt 0.697799 0.357647
vt 0.649149 0.277550
vt 0.554835 0.321171
vt 0.457318 0.357068
vt 0.479602 0.448094
vt 0.639347 0.525458
vt 0.639347 0.525458
vt 0.673280 0.525458
vt 0.375564 0.433864
vt 0.404477 0.433864
vt 0.404477 0.433864
vt 0.404477 0.433864
s 1
usemtl Head
f 20/20/1 19/19/2 18/18/3
f 19/19/2 17/17/4 18/18/3
f 18/18/3 17/17/4 16/16/5
f 17/17/4 15/15/6 16/16/5
f 16/16/5 15/15/6 13/13/7
f 15/15/6 14/14/8 13/13/7
f 14/14/8 12/12/9 13/13/7
f 12/12/9 11/11/10 13/13/7
f 12/12/9 10/10/11 11/11/10
f 10/10/11 7/7/12 11/11/10
f 10/10/11 9/9/13 7/7/12
f 9/9/13 8/8/14 7/7/12
f 6/6/15 5/5/16 1/1/17
f 5/5/16 4/4/18 1/1/17
f 4/4/18 3/3/19 1/1/17
f 3/3/19 2/2/20 1/1/17
f 2/2/20 13/13/7 11/11/10 1/1/17
f 13/13/7 20/20/1 18/18/3 16/16/5
f 1/1/17 11/11/10 7/7/12 6/6/15
usemtl Hood
f 232/232/21 233/233/22 231/231/23
f 232/232/21 231/231/23 230/230/24
f 229/229/6 228/228/4 227/227/25
f 226/226/26 225/225/27 221/221/28
f 225/225/27 224/224/29 221/221/28
f 224/224/29 223/223/30 221/221/28
f 223/223/30 222/222/31 221/221/28
f 220/220/32 219/219/33 218/218/26
f 212/212/34 217/217/28 211/211/35
f 217/217/28 212/212/34 216/216/36
f 212/212/34 215/215/37 216/216/36
f 215/215/37 212/212/34 214/214/38
f 212/212/34 213/213/39 214/214/38
f 213/213/39 212/212/34 211/211/35
f 210/210/6 209/209/40 205/205/8
f 209/209/40 208/208/41 205/205/8
f 208/208/41 207/207/42 205/205/8
f 207/207/42 206/206/9 205/205/8
f 34/34/43 204/204/44 54/54/45
f 204/204/44 203/203/46 54/54/45
f 204/204/44 201/201/47 203/203/46
f 201/201/47 202/202/48 203/203/46
f 200/200/49 202/202/48 201/201/47
f 199/199/50 200/200/49 201/201/47
f 200/200/49 199/199/50 198/198/51
f 199/199/50 197/197/52 198/198/51
f 194/194/53 198/198/51 197/197/52
f 196/196/54 194/194/53 197/197/52
f 193/193/55 194/194/53 196/196/54
f 195/195/56 194/194/53 193/193/55
f 192/192/57 50/50/58 51/51/59
f 191/191/60 192/192/57 51/51/59
f 189/189/61 192/192/57 191/191/60
f 190/190/62 189/189/61 191/191/60
f 190/190/62 188/188/63 189/189/61
f 188/188/63 187/187/64 189/189/61
f 187/187/64 188/188/63 186/186/65
f 185/185/66 187/187/64 186/186/65
f 186/186/65 183/183/67 185/185/66
f 183/183/67 184/184/68 185/185/66
f 183/183/67 181/181/69 184/184/68
f 183/183/67 182/182/70 181/181/69
f 180/180/11 179/179/71 178/178/72
f 177/177/73 175/175/72 176/176/74
f 176/176/74 175/175/72 174/174/71
f 173/173/75 172/172/76 171/171/77
f 170/170/23 169/169/26 166/166/78
f 168/168/79 167/167/80 166/166/28
f 165/165/81 163/163/82 164/164/80
f 164/164/80 163/163/82 162/162/83
f 145/145/84 147/147/85 161/161/86
f 144/144/87 145/145/84 161/161/86
f 144/144/87 161/161/86 160/160/45
f 157/157/46 144/144/87 160/160/45
f 152/152/55 159/159/88 151/151/89
f 158/158/53 153/153/90 154/154/51
f 143/143/91 144/144/87 157/157/46
f 156/156/92 143/143/91 157/157/46
f 140/140/93 143/143/91 156/156/92
f 155/155/94 140/140/93 156/156/92
f 140/140/93 155/155/94 154/154/51
f 139/139/95 140/140/93 154/154/51
f 153/153/90 139/139/95 154/154/51
f 139/139/95 153/153/90 138/138/96
f 153/153/90 152/152/55 138/138/96
f 138/138/96 152/152/55 151/151/89
f 141/141/97 138/138/96 151/151/89
f 150/150/98 141/141/97 151/151/89
f 141/141/97 150/150/98 149/149/99
f 142/142/100 141/141/97 149/149/99
f 142/142/100 149/149/99 148/148/101
f 145/145/84 142/142/100 148/148/101
f 145/145/84 148/148/101 146/146/102
f 147/147/85 145/145/84 146/146/102
f 142/142/100 145/145/84 144/144/87
f 143/143/91 142/142/100 144/144/87
f 143/143/91 140/140/93 142/142/100
f 140/140/93 141/141/97 142/142/100
f 141/141/97 140/140/93 138/138/96
f 140/140/93 139/139/95 138/138/96
f 137/137/68 136/136/103 135/135/66
f 136/136/103 116/116/104 118/118/105
f 136/136/103 118/118/105 135/135/66
f 118/118/105 133/133/106 135/135/66
f 133/133/106 134/134/107 135/135/66
f 127/127/108 131/131/109 124/124/110
f 131/131/109 122/122/111 124/124/110
f 119/119/112 122/122/111 131/131/109
f 133/133/106 119/119/112 131/131/109
f 119/119/112 133/133/106 118/118/105
f 134/134/107 133/133/106 132/132/113
f 133/133/106 131/131/109 132/132/113
f 132/132/113 131/131/109 130/130/57
f 131/131/109 127/127/108 130/130/57
f 130/130/57 127/127/108 129/129/114
f 127/127/108 128/128/115 129/129/114
f 128/128/115 127/127/108 126/126/116
f 127/127/108 124/124/110 126/126/116
f 126/126/116 124/124/110 125/125/117
f 124/124/110 123/123/60 125/125/117
f 124/124/110 122/122/111 123/123/60
f 122/122/111 121/121/62 123/123/60
f 122/122/111 119/119/112 121/121/62
f 119/119/112 120/120/63 121/121/62
f 120/120/63 119/119/112 114/114/65
f 119/119/112 117/117/118 114/114/65
f 117/117/118 119/119/112 118/118/105
f 117/117/118 116/116/104 114/114/65
f 116/116/104 115/115/119 114/114/65
f 113/113/120 112/112/121 110/110/122
f 112/112/121 111/111/123 110/110/122
f 109/109/45 108/108/124 106/106/102
f 108/108/124 107/107/125 106/106/102
f 104/104/25 105/105/126 103/103/127
f 104/104/25 103/103/127 102/102/6
f 101/101/128 100/100/129 98/98/130
f 100/100/129 99/99/131 98/98/130
f 97/97/123 96/96/132 94/94/133
f 96/96/132 95/95/134 94/94/133
f 92/92/135 93/93/136 85/85/137
f 93/93/136 92/92/135 91/91/138
f 91/91/139 90/90/140 84/84/141
f 90/90/140 89/89/142 84/84/141
f 89/89/142 88/88/41 84/84/141
f 84/84/141 88/88/41 86/86/143
f 88/88/41 87/87/40 86/86/143
f 86/86/143 85/85/137 84/84/141
f 82/82/144 83/83/32 81/81/145
f 82/82/144 81/81/145 79/79/146
f 81/81/145 80/80/147 79/79/146
f 78/78/148 33/33/125 77/77/149
f 77/77/149 33/33/125 68/68/150
f 77/77/149 68/68/150 75/75/123
f 77/77/149 75/75/123 76/76/18
f 75/75/123 73/73/19 76/76/18
f 60/60/151 73/73/19 75/75/123
f 49/49/152 73/73/19 60/60/151
f 49/49/152 74/74/4 73/73/19
f 71/71/153 70/70/76 72/72/154
f 71/71/153 66/66/155 70/70/76
f 66/66/155 65/65/156 70/70/76
f 70/70/76 65/65/156 69/69/157
f 69/69/157 65/65/156 68/68/150
f 67/67/83 69/69/157 68/68/150
f 33/33/125 67/67/83 68/68/150
f 67/67/83 33/33/125 53/53/80
f 66/66/155 63/63/158 65/65/156
f 63/63/158 64/64/132 65/65/156
f 64/64/132 63/63/158 58/58/134
f 63/63/158 56/56/159 58/58/134
f 57/57/32 55/55/160 62/62/161
f 49/49/152 61/61/162 52/52/23
f 61/61/162 49/49/152 60/60/151
f 59/59/163 61/61/162 60/60/151
f 58/58/134 59/59/163 60/60/151
f 58/58/134 57/57/32 59/59/163
f 58/58/134 56/56/159 57/57/32
f 56/56/159 55/55/160 57/57/32
f 36/36/86 37/37/164 54/54/45
f 37/37/164 53/53/35 54/54/45
f 39/39/165 53/53/35 37/37/164
f 52/52/36 44/44/37 45/45/166
f 45/45/166 47/47/116 51/51/167
f 49/49/168 50/50/169 48/48/115
f 46/46/170 49/49/168 48/48/115
f 46/46/170 48/48/115 47/47/116
f 45/45/166 46/46/170 47/47/116
f 46/46/170 45/45/166 30/30/127
f 44/44/37 30/30/127 45/45/166
f 30/30/127 44/44/37 29/29/171
f 29/29/171 44/44/37 43/43/172
f 44/44/37 42/42/173 43/43/172
f 43/43/172 42/42/173 41/41/138
f 42/42/173 39/39/165 41/41/138
f 41/41/138 39/39/165 40/40/174
f 39/39/165 38/38/142 40/40/174
f 38/38/142 39/39/165 37/37/164
f 37/37/164 35/35/73 38/38/142
f 35/35/73 37/37/164 36/36/86
f 32/32/175 35/35/73 36/36/86
f 33/33/72 35/35/73 32/32/175
f 34/34/102 33/33/72 32/32/175
f 31/31/143 30/30/127 29/29/171
f 28/28/176 24/24/177 27/27/83
f 24/24/177 25/25/157 27/27/83
f 26/26/178 25/25/157 24/24/177
f 23/23/36 22/22/179 21/21/180
f 117/117/118 118/118/105 116/116/104
f 26/26/178 24/24/177 163/163/82 165/165/81
f 233/233/22 232/232/21 82/82/181 83/83/182
f 223/223/30 224/224/29 225/225/27 56/56/159 63/63/158 66/66/155
f 71/71/153 72/72/154 66/66/155
f 56/56/159 62/62/161 55/55/160
