# Blender 3.5.1
# www.blender.org
mtllib upper arm A.mtl
o upper_arm_A
v -0.126284 1.028907 0.017673
v -0.120780 1.037497 -0.085219
v -0.177579 1.000652 -0.079262
v -0.175277 0.997977 0.011564
v -0.126284 1.028907 0.017673
v -0.223349 1.056147 -0.065575
v -0.220719 1.052194 0.010210
v -0.282951 0.987550 0.010808
v -0.287378 0.989915 -0.066084
v -0.234413 0.942276 -0.079971
v -0.177579 1.000652 -0.079262
v -0.120780 1.037497 -0.085219
v -0.154804 1.138257 -0.070259
v -0.154190 1.133181 0.015599
v -0.175277 0.997977 0.011564
v -0.231775 0.939919 0.012104
vn 0.4396 -0.4185 -0.7948
vn 0.3512 -0.4875 -0.7994
vn 0.4130 -0.5644 0.7148
vn 0.2294 -0.3315 0.9152
vn -0.4801 0.5012 0.7199
vn -0.5345 0.4444 0.7190
vn -0.3885 -0.2635 0.8829
vn 0.0357 0.7327 0.6796
vn -0.5974 0.5152 -0.6145
vn -0.0841 0.7781 -0.6225
vn 0.2889 -0.0783 -0.9542
vn -0.6936 0.6386 -0.3334
vn 0.4129 -0.5644 0.7148
vn -0.7041 -0.3349 0.6261
vn -0.3036 -0.2057 -0.9303
vt 0.172143 0.254340
vt 0.188649 0.254340
vt 0.188649 0.254340
vt 0.172143 0.254340
vt 0.700359 0.510600
vt 0.781639 0.510600
vt 0.732618 0.510600
vt 0.732618 0.510600
vt 0.781639 0.510600
vt 0.781639 0.510600
vt 0.781639 0.510600
vt 0.781639 0.510600
vt 0.781639 0.510600
vt 0.732618 0.510600
vt 0.700359 0.510600
vt 0.700359 0.510600
s 1
usemtl Hood
f 10/10/1 11/11/2 15/15/3
f 16/16/4 10/10/1 15/15/3
f 8/8/5 16/16/4 15/15/3
f 7/7/6 8/8/5 15/15/3
f 15/15/3 5/5/7 7/7/6
f 7/7/6 5/5/7 14/14/8
f 6/6/9 7/7/6 14/14/8
f 13/13/10 6/6/9 14/14/8
f 13/13/10 12/12/11 6/6/9
f 11/11/2 6/6/9 12/12/11
f 9/9/12 6/6/9 11/11/2
f 10/10/1 9/9/12 11/11/2
f 9/9/12 8/8/5 6/6/9
f 8/8/5 7/7/6 6/6/9
f 4/4/13 3/3/2 1/1/14
f 3/3/2 2/2/15 1/1/14
f 14/14/8 5/5/7 12/12/11 13/13/10
